<svg width="49" height="68" viewBox="0 0 49 68" fill="none" xmlns="http://www.w3.org/2000/svg">
<path d="M49 40.5C49 50.5672 38.0342 52.5 24.5 52.5C10.9658 52.5 0 50.5672 0 40.5C0 30.4328 16 0 24.5 0C33.0001 0 49 30.4328 49 40.5Z" fill="#7828BE"/>
<path d="M42.99 32.95C42.99 33.83 42.28 34.5499 41.39 34.5499H39.54C32.23 34.5499 27.72 38.98 27.72 46.7V66.36C27.72 67.24 27.01 67.96 26.12 67.96H21.6C20.72 67.96 20 67.25 20 66.36V29.5C20 28.62 20.71 27.9 21.6 27.9H25.75C26.58 27.9 27.27 28.54 27.34 29.37C27.45 30.71 29.09 31.35 30.04 30.39C32.13 28.28 35.17 27 38.88 27C39.85 27 40.71 27.08 41.66 27.24C42.42 27.37 42.98 28.0399 42.98 28.8099V32.95H42.99Z" fill="black"/>
<path opacity="0.8" d="M13.11 36C18.2 36 22.02 38.4 23.87 42.08C23.98 42.3 24.03 42.55 24.03 42.8V45.8199C24.03 47.2499 22.27 47.9899 21.3 46.9399C19.25 44.7299 16.23 43.55 12.45 43.55H10.6C9.72004 43.55 9 42.84 9 41.95V37.8101C9 37.0401 9.56001 36.36 10.32 36.24C11.29 36.08 12.14 36 13.11 36Z" fill="black"/>
</svg>
